<svg xmlns="http://www.w3.org/2000/svg" xml:space="preserve" width="256" height="256" style="fill-rule:evenodd;clip-rule:evenodd;stroke-linejoin:round;stroke-miterlimit:2" viewBox="0 0 505 467"><path d="m304.731 196.731-60.095-96.158-79.537 112.45L288.13 505.751l95.898-211.814-26.883-21.497c-49.68 57.733-83.925 5.733-52.414-75.709ZM354.375 85.89l132.154 125.79a7.037 7.037 0 0 1-7.023 7.507h-17.611L342.5 416.44 546 212.842 354.375 85.89Zm-133.023 0L41 212.842 232.5 403.44 125.105 219.187h-17.611a7.041 7.041 0 0 1-7.023-7.507L221.352 85.89Zm-5.64 90.874c-6.712-3.902-13.576 20.017-7.322 47.095 6.254 27.078 25.625 57.316 71.383 66.052 3.816.728-28.287-92.348-64.061-113.147Zm153.912 81.532 20.799 21.631 31.319-66.849-133.644-173.95-35.112 49.641 59.233 92.987c6.033-10.538 16.639-25.791 16.639-25.791 16.429-3.979 58.314 38.172 61.642 56.475 0 0-3.854 22.917-20.876 45.856ZM381.5 211.44c-13.382-21.697-28.939-38.951-47.65-44.659-36.15 43.494-49.419 166.647 13.311 100.667 20.295-22.348 27.237-35.195 34.339-56.008Z" style="fill:#fff" transform="translate(-41 -39.128)"/></svg>