<?xml version="1.0" encoding="UTF-8" standalone="no"?>
<!DOCTYPE svg PUBLIC "-//W3C//DTD SVG 1.1//EN" "http://www.w3.org/Graphics/SVG/1.1/DTD/svg11.dtd">
<svg width="256" height="256" viewBox="0 0 505 467" version="1.1" xmlns="http://www.w3.org/2000/svg" xmlns:xlink="http://www.w3.org/1999/xlink" xml:space="preserve" xmlns:serif="http://www.serif.com/" style="fill-rule:evenodd;clip-rule:evenodd;stroke-linejoin:round;stroke-miterlimit:2;">
    <g transform="matrix(1,0,0,1,-47.5,-66.6884)">
        <g transform="matrix(1,0,0,1,6.5,27.5603)">
            <path d="M304.731,196.731L244.636,100.573L165.099,213.023L288.13,505.751L384.028,293.937L357.145,272.44C307.465,330.173 273.22,278.173 304.731,196.731ZM354.375,85.89L486.529,211.68C486.659,213.624 485.977,215.534 484.646,216.957C483.315,218.379 481.454,219.187 479.506,219.187L461.895,219.187L342.5,416.44L546,212.842L354.375,85.89ZM221.352,85.89L41,212.842L232.5,403.44L125.105,219.187L107.494,219.187C105.546,219.187 103.685,218.379 102.354,216.957C101.023,215.534 100.341,213.624 100.471,211.68L221.352,85.89ZM215.712,176.764C209,172.862 202.136,196.781 208.39,223.859C214.644,250.937 234.015,281.175 279.773,289.911C283.589,290.639 251.486,197.563 215.712,176.764ZM369.624,258.296L390.423,279.927L421.742,213.078L288.098,39.128L252.986,88.769L312.219,181.756C318.252,171.218 328.858,155.965 328.858,155.965C345.287,151.986 387.172,194.137 390.5,212.44C390.5,212.44 386.646,235.357 369.624,258.296ZM381.5,211.44C368.118,189.743 352.561,172.489 333.85,166.781C297.7,210.275 284.431,333.428 347.161,267.448C367.456,245.1 374.398,232.253 381.5,211.44Z" style="fill:white;"/>
        </g>
    </g>
</svg>
